<svg width="100%" height="100%" viewBox="0 0 20 20" fill="none" xmlns="http://www.w3.org/2000/svg">
<circle cx="10" cy="2" r="2" fill="#4060EC"/>
<path d="M11.6488 4.00229H8.34989C7.05192 4.00229 6 4.94395 6 6.10586V9.12362C6 9.8988 6.46844 10.5756 7.16504 10.94C7.28966 11.0052 7.44624 10.9263 7.44624 10.797V6.29179C7.44624 6.21913 7.51206 6.15963 7.59387 6.15963C7.67503 6.15963 7.74149 6.21856 7.74149 6.29179V17.0093C7.74149 17.5299 8.18949 17.9841 8.77105 17.9996C9.37242 18.0156 9.86643 17.5837 9.86643 17.0488V11.6105C9.86643 11.5378 9.93226 11.4783 10.0141 11.4783C10.0952 11.4783 10.1617 11.5373 10.1617 11.6105V17.0087C10.1617 17.5293 10.6097 17.9835 11.1912 17.999C11.7926 18.015 12.2866 17.5831 12.2866 17.0482V6.29064C12.2866 6.21799 12.3525 6.15849 12.4343 6.15849C12.5154 6.15849 12.5819 6.21741 12.5819 6.29064V10.7798C12.5819 10.9097 12.741 10.9892 12.865 10.9217C13.545 10.5533 14 9.88507 14 9.12133V6.10357C14 4.94166 12.9481 4 11.6501 4L11.6488 4.00229Z" fill="#4060EC"/>
</svg>
