<svg width="100%" height="100%" viewBox="0 0 21 20" fill="none" xmlns="http://www.w3.org/2000/svg">
<path d="M13.3006 3.16828C13.5812 1.97979 12.8452 0.788826 11.6567 0.50819C10.4683 0.227554 9.2773 0.963515 8.99666 2.152C8.71603 3.34049 9.45199 4.53146 10.6405 4.81209C11.829 5.09273 13.0199 4.35677 13.3006 3.16828Z" fill="#E5518D"/>
<path d="M15.6415 11.2951L14.1853 5.66265C14.1835 5.65665 14.1818 5.65066 14.18 5.64527C14.043 5.25823 13.6849 5 13.2837 5H8.89193C8.49013 5 8.13207 5.25823 7.99561 5.64527C7.99386 5.65126 7.99211 5.65665 7.99036 5.66265L6.5342 11.2951C6.5342 11.2951 6.23212 12.5 7.41711 12.7253H7.43519L7.06138 14.748H8.51404L9.24008 20H12.9362L13.6622 14.748H15.1149L14.741 12.7253H14.7585C15.8992 12.5324 15.6415 11.2951 15.6415 11.2951Z" fill="#E5518D"/>
</svg>
