<svg width="83" height="83" viewBox="0 0 83 83" fill="none" xmlns="http://www.w3.org/2000/svg">
<path d="M41.5597 82.3806C64.3085 82.3806 82.75 63.9391 82.75 41.1903C82.75 18.4415 64.3085 0 41.5597 0C18.8109 0 0.369385 18.4415 0.369385 41.1903C0.369385 63.9391 18.8109 82.3806 41.5597 82.3806Z" fill="#090909"/>
<path d="M18.0167 57.1956L43.1567 82.3356C63.1167 81.5656 79.4367 66.6056 82.2967 47.2556L65.0567 30.0156L18.0167 57.1956Z" fill="#090909"/>
<path d="M41.0515 40.6003V62.1198L22.3468 51.3045V29.793L41.0515 40.6003Z" fill="#FF874F"/>
<path d="M59.677 29.793V51.3125L41.0516 62.1198V40.6003L59.677 29.793Z" fill="#EF6D3A"/>
<path d="M47.8387 22.9185L29.1895 33.7496L31.4969 35.0817L50.146 24.2585L47.8387 22.9185Z" fill="#FF874F"/>
<path d="M41.0515 18.9775L22.3468 29.7928L29.1896 33.7494L47.8388 22.9183L41.0515 18.9775Z" fill="#FED4C5"/>
<path d="M50.1462 24.2583L31.497 35.0815L33.614 36.3026L52.2553 25.4873L50.1462 24.2583Z" fill="#FF874F"/>
<path d="M59.6768 29.7928L52.2552 25.4873L33.614 36.3026L41.0514 40.6001L59.6768 29.7928Z" fill="#FED4C5"/>
<path d="M43.4461 56.8866V58.4645L50.9391 54.1907L50.9312 52.6128L43.4461 56.8866Z" fill="#7C0031"/>
<path d="M44.358 54.8406L45.7614 54.0318L45.7535 50.321L46.5068 49.8849L44.9685 48.1802L43.4461 51.6531L44.3501 51.1298L44.358 54.8406Z" fill="#7C0031"/>
<path d="M48.6475 52.6126L50.051 51.8038L50.0431 48.093L50.7963 47.6569L49.2581 45.9521L47.7357 49.4251L48.6396 48.9018L48.6475 52.6126Z" fill="#7C0031"/>
<path d="M29.2054 33.7417V41.7104L33.6377 44.2636V36.2949L29.2054 33.7417Z" fill="#FF5100"/>
<path d="M39.2357 33.0438H30.4106L33.3523 31.3628H42.1298L39.2357 33.0438Z" fill="#FF874F"/>
<path d="M43.9931 30.2844H35.1601L36.627 29.436H45.452L43.9931 30.2844Z" fill="#FF874F"/>
<path d="M67.9009 27.2077C67.7738 27.5137 67.4227 27.6588 67.1167 27.5316L62.1297 25.4603C61.8237 25.3332 61.6786 24.9821 61.8058 24.6761C61.9329 24.37 62.284 24.225 62.59 24.3521L67.0228 26.1933L68.864 21.7604C68.9911 21.4544 69.3422 21.3094 69.6483 21.4365C69.9543 21.5636 70.0993 21.9147 69.9722 22.2207L67.9009 27.2077ZM19.7924 20.6681C19.5705 20.9142 19.1911 20.9338 18.945 20.7119C18.6989 20.49 18.6793 20.1106 18.9012 19.8645L19.7924 20.6681ZM66.7923 27.2066C63.9755 20.3876 57.0988 13.3079 48.4983 10.6612C39.9576 8.03287 29.6348 9.75165 19.7924 20.6681L18.9012 19.8645C29.0268 8.63385 39.824 6.73621 48.8513 9.51427C57.8188 12.2739 64.9581 19.6234 67.9014 26.7485L66.7923 27.2066Z" fill="white"/>
<path d="M15.3803 52.6058C15.5856 52.3457 15.9629 52.3013 16.223 52.5066L20.4613 55.8527C20.7214 56.058 20.7658 56.4353 20.5605 56.6954C20.3552 56.9555 19.9779 56.9999 19.7178 56.7946L15.9503 53.8203L12.976 57.5877C12.7707 57.8478 12.3934 57.8922 12.1333 57.6868C11.8732 57.4815 11.8288 57.1042 12.0342 56.8441L15.3803 52.6058ZM63.4372 62.5432C63.677 62.3145 64.0568 62.3234 64.2855 62.5632C64.5142 62.803 64.5053 63.1828 64.2655 63.4115L63.4372 62.5432ZM16.4471 52.9074C18.3796 69.3338 43.1353 81.9085 63.4372 62.5432L64.2655 63.4115C43.3699 83.3432 17.3227 70.6208 15.2553 53.0476L16.4471 52.9074Z" fill="white"/>
</svg>
