<svg width="83" height="83" viewBox="0 0 83 83" fill="none" xmlns="http://www.w3.org/2000/svg">
<path d="M41.8116 82.3767C64.5593 82.3767 82.9999 63.936 82.9999 41.1883C82.9999 18.4407 64.5593 0 41.8116 0C19.0639 0 0.623291 18.4407 0.623291 41.1883C0.623291 63.936 19.0639 82.3767 41.8116 82.3767Z" fill="#090909"/>
<path d="M59.5694 34.1884L48.2394 22.8584L41.1094 29.9884L40.0794 28.9584L14.6094 54.4284L42.5694 82.3884C61.4094 82.0484 77.1594 69.0784 81.6894 51.5784L61.9494 31.8284L59.5694 34.1884Z" fill="#090909"/>
<path d="M59.6993 40.4485H52.0793C51.0993 40.4485 50.3093 39.6585 50.3093 38.6785V34.4785C50.3093 33.4985 51.0993 32.7085 52.0793 32.7085H58.5293C59.3193 32.7085 60.0193 33.2385 60.2293 33.9985L61.3993 38.1985C61.7193 39.3285 60.8693 40.4485 59.6993 40.4485Z" fill="#96C3D2"/>
<path d="M53.8495 43.7783H51.4395V44.7883H53.8495V43.7783Z" fill="#FFBD9E"/>
<path d="M67.6795 49.9083H66.4495V45.7983H67.6795C68.4095 45.7983 69.0095 46.3883 69.0095 47.1283V48.5783C69.0095 49.3183 68.4095 49.9083 67.6795 49.9083Z" fill="#FFBD9E"/>
<path d="M65.7994 40.7485L64.7194 40.1585L62.7594 33.2785C62.3194 31.7485 61.1894 30.7285 59.9294 30.7285H48.2894V40.1685V44.7985H14.6094V54.4985H48.2894H55.7994H62.0194H64.8494C66.1894 54.4985 67.2694 53.0885 67.2694 51.3485V43.6485C67.2794 42.3785 66.6894 41.2385 65.7994 40.7485Z" fill="#4A98B1"/>
<path d="M52.0794 41.3286C50.6194 41.3286 49.4294 40.1386 49.4294 38.6786V34.4786C49.4294 33.0186 50.6194 31.8286 52.0794 31.8286H58.5294C59.7194 31.8286 60.7694 32.6286 61.0794 33.7686L62.2494 37.9686C62.4694 38.7786 62.3094 39.6186 61.8094 40.2886C61.2994 40.9586 60.5294 41.3386 59.6994 41.3386H52.0794V41.3286Z" fill="#83F6FF"/>
<path d="M49.1593 49.4185C46.3693 49.4185 44.0894 51.6885 44.0894 54.4885C44.0894 57.2785 46.3593 59.5584 49.1593 59.5584C51.8993 59.6384 54.1394 57.4185 54.2294 54.4885C54.3194 51.6985 51.9593 49.4185 49.1593 49.4185ZM49.1593 56.7585C47.9093 56.7585 46.8893 55.7385 46.8893 54.4885C46.8893 53.2385 47.9093 52.2184 49.1593 52.2184C50.4093 52.2184 51.4294 53.2385 51.4294 54.4885C51.4394 55.7385 50.4193 56.7585 49.1593 56.7585Z" fill="#006E91"/>
<path d="M49.1594 52.2183C47.9094 52.2183 46.8894 53.2383 46.8894 54.4883C46.8894 55.7383 47.9094 56.7583 49.1594 56.7583C50.4094 56.7583 51.4294 55.7383 51.4294 54.4883C51.4394 53.2383 50.4194 52.2183 49.1594 52.2183Z" fill="white"/>
<path d="M48.2894 22.8584H14.6094V44.7884H48.2894V22.8584Z" fill="#FF874F"/>
<path d="M49.1593 49.4186C51.9493 49.4186 54.3093 51.6886 54.2293 54.4886H56.3293C56.3293 50.5286 53.1193 47.3286 49.1593 47.3286C45.1993 47.3286 41.9893 50.5386 41.9893 54.4886H44.0893C44.0993 51.6986 46.3693 49.4186 49.1593 49.4186Z" fill="#33C0D3"/>
<path d="M25.3493 49.4185C22.5593 49.4185 20.2793 51.6885 20.2793 54.4885C20.2793 57.2785 22.5493 59.5584 25.3493 59.5584C28.0893 59.6384 30.3293 57.4185 30.4193 54.4885C30.5093 51.6985 28.1493 49.4185 25.3493 49.4185ZM25.3493 56.7585C24.0993 56.7585 23.0793 55.7385 23.0793 54.4885C23.0793 53.2385 24.0993 52.2184 25.3493 52.2184C26.5993 52.2184 27.6193 53.2385 27.6193 54.4885C27.6293 55.7385 26.6093 56.7585 25.3493 56.7585Z" fill="#006E91"/>
<path d="M25.3493 52.2183C24.0993 52.2183 23.0793 53.2383 23.0793 54.4883C23.0793 55.7383 24.0993 56.7583 25.3493 56.7583C26.5993 56.7583 27.6194 55.7383 27.6194 54.4883C27.6294 53.2383 26.6093 52.2183 25.3493 52.2183Z" fill="white"/>
<path d="M25.3494 49.4186C28.1394 49.4186 30.4994 51.6886 30.4194 54.4886H32.5194C32.5194 50.5286 29.3094 47.3286 25.3494 47.3286C21.3894 47.3286 18.1794 50.5386 18.1794 54.4886H20.2794C20.2894 51.6986 22.5594 49.4186 25.3494 49.4186Z" fill="#33C0D3"/>
<g opacity="0.31">
<path d="M19.6494 22.8584H14.6094V44.7884H19.6494V22.8584Z" fill="#FED4C5"/>
</g>
<g opacity="0.31">
<path d="M29.1994 22.8584H24.1594V44.7884H29.1994V22.8584Z" fill="#FED4C5"/>
</g>
<g opacity="0.31">
<path d="M38.7395 22.8584H33.6995V44.7884H38.7395V22.8584Z" fill="#FED4C5"/>
</g>
<g opacity="0.31">
<path d="M48.2893 22.8584H43.2493V44.7884H48.2893V22.8584Z" fill="#FED4C5"/>
</g>
<path d="M48.2894 43.0186H14.6094V44.8085H48.2894V43.0186Z" fill="#33C0D3"/>
</svg>
