<svg width="83" height="83" viewBox="0 0 83 83" fill="none" xmlns="http://www.w3.org/2000/svg">
<path d="M82.5 41.19C82.5 63.94 64.06 82.38 41.31 82.38C18.56 82.38 0.119995 63.94 0.119995 41.19C0.119995 18.44 18.56 0 41.31 0C64.06 0 82.5 18.45 82.5 41.19Z" fill="#090909"/>
<path d="M52.93 17.6301C52.87 17.5701 52.82 17.5101 52.76 17.4601C52.28 16.9301 51.6 16.6001 50.83 16.6001H26.1C24.65 16.6001 23.48 17.7701 23.48 19.2201V58.1701C23.48 58.9401 23.82 59.6201 24.34 60.1001C24.4 60.1601 38.34 74.1101 38.4 74.1601C38.42 74.1801 38.44 74.2101 38.46 74.2301V78.3501L42.47 82.3601C62.79 81.7901 79.42 66.5301 82.1 46.8101C72.13 36.8201 52.98 17.6701 52.93 17.6301Z" fill="#090909"/>
<mask id="mask0_673_717" style="mask-type:luminance" maskUnits="userSpaceOnUse" x="0" y="0" width="83" height="83">
<path d="M82.5 41.19C82.5 63.94 64.06 82.38 41.31 82.38C18.56 82.38 0.119995 63.94 0.119995 41.19C0.119995 18.44 18.56 0 41.31 0C64.06 0 82.5 18.45 82.5 41.19Z" fill="white"/>
</mask>
<g mask="url(#mask0_673_717)">
<path d="M50.83 60.7798H26.1C24.65 60.7798 23.48 59.6099 23.48 58.1599V19.2098C23.48 17.7598 24.65 16.5898 26.1 16.5898H50.83C52.28 16.5898 53.45 17.7598 53.45 19.2098V58.1599C53.45 59.6099 52.28 60.7798 50.83 60.7798Z" fill="#005366"/>
<path d="M26.73 52.3098V22.4598C26.73 21.0098 27.9 19.8398 29.35 19.8398H47.58C49.03 19.8398 50.2 21.0098 50.2 22.4598V52.3098C50.2 53.7598 49.03 54.9298 47.58 54.9298H29.35C27.91 54.9298 26.73 53.7598 26.73 52.3098Z" fill="#96C3D2"/>
<path d="M50.2 27.9596L26.73 36.8196V31.7296L50.2 22.8696V27.9596Z" fill="white"/>
<path d="M50.2 31.5798L26.73 40.4298V38.8798L50.2 30.0298V31.5798Z" fill="white"/>
<path d="M57.1299 62.2197H40.7999V68.4997H57.1299V62.2197Z" fill="#33C0D3"/>
<path d="M38.47 82.3798V70.3398C38.47 69.3198 39.3 68.4897 40.32 68.4897H57.28C58.3 68.4897 59.13 69.3198 59.13 70.3398V82.3798H38.47Z" fill="#006E91"/>
<path d="M33.5499 56.8198H29.2999V59.2698H33.5499V56.8198Z" fill="#006E91"/>
<path d="M40.96 56.8198H36.71V59.2698H40.96V56.8198Z" fill="#006E91"/>
<path d="M53.4199 48.4097L40.8199 49.8297L42.56 34.9497L53.45 45.8297L53.4199 48.4097Z" fill="#006E91"/>
<path d="M54.8199 46.1296H54.7699C53.4899 46.1296 52.4599 47.1596 52.4599 48.4396C52.4599 47.1596 51.4299 46.1296 50.1499 46.1296H50.0999C48.8199 46.1296 47.7899 47.1596 47.7899 48.4396C47.7899 47.1596 46.7599 46.1296 45.4799 46.1296H45.4299C44.1499 46.1296 43.1199 47.1596 43.1199 48.4396V36.4296C43.1199 35.1496 42.09 34.1196 40.81 34.1196H40.7599C39.4799 34.1196 38.45 35.1496 38.45 36.4296V57.5996C38.45 60.1496 40.5199 62.2196 43.0699 62.2196H43.1199H47.7899H52.4599H52.5099C55.0599 62.2196 57.1299 60.1496 57.1299 57.5996V48.4496C57.1299 47.1696 56.0999 46.1296 54.8199 46.1296Z" fill="#FED4C5"/>
<path d="M50.2 62.2197H43.09V68.4997H50.2V62.2197Z" fill="#33C0D3"/>
</g>
</svg>
