<svg width="84" height="83" viewBox="0 0 84 83" fill="none" xmlns="http://www.w3.org/2000/svg">
<path d="M42.0597 82.3806C64.8085 82.3806 83.25 63.9391 83.25 41.1903C83.25 18.4415 64.8085 0 42.0597 0C19.3109 0 0.869385 18.4415 0.869385 41.1903C0.869385 63.9391 19.3109 82.3806 42.0597 82.3806Z" fill="#090909"/>
<path d="M18.5166 57.1956L43.6566 82.3356C63.6166 81.5656 79.9366 66.6056 82.7966 47.2556L65.5566 30.0156L18.5166 57.1956Z" fill="#090909"/>
<path d="M63.6993 27.1201C64.7993 30.7601 62.9693 31.6801 62.9693 31.6801L57.6793 24.0601L63.2593 26.2801L63.6993 27.1201Z" fill="#96C3D2"/>
<path d="M18.9393 51.3002C17.8393 47.6602 19.6693 46.7402 19.6693 46.7402L24.9593 54.3602L19.3793 52.1403L18.9393 51.3002Z" fill="#96C3D2"/>
<path d="M63.9694 39.8203C63.9694 52.1403 53.9794 62.1303 41.6594 62.1303C29.3394 62.1303 19.3494 52.1403 19.3494 39.8203C19.3494 27.5003 29.3394 17.5103 41.6594 17.5103C53.9794 17.5003 63.9694 27.5003 63.9694 39.8203Z" fill="#4A98B1"/>
<path d="M41.6593 62.7901C28.9893 62.7901 18.6793 52.4801 18.6793 39.8101C18.6793 27.1401 28.9893 16.8301 41.6593 16.8301C54.3293 16.8301 64.6393 27.1401 64.6393 39.8101C64.6393 52.4901 54.3293 62.7901 41.6593 62.7901ZM41.6593 18.1701C29.7193 18.1701 20.0093 27.8801 20.0093 39.8201C20.0093 51.7601 29.7193 61.4701 41.6593 61.4701C53.5993 61.4701 63.3093 51.7601 63.3093 39.8201C63.3093 27.8801 53.5993 18.1701 41.6593 18.1701Z" fill="#141C16"/>
<path d="M41.6593 17.5C53.9793 17.5 63.9693 27.49 63.9693 39.81C63.9693 52.13 53.9793 62.12 41.6593 62.12V17.5Z" fill="#006E91"/>
<path d="M41.6593 62.7901C41.2893 62.7901 40.9993 62.4901 40.9993 62.1301C40.9993 61.7601 41.2993 61.4701 41.6593 61.4701C53.5993 61.4701 63.3093 51.7601 63.3093 39.8201C63.3093 27.8801 53.5993 18.1701 41.6593 18.1701C41.2893 18.1701 40.9993 17.8701 40.9993 17.5101C40.9993 17.1401 41.2993 16.8501 41.6593 16.8501C54.3293 16.8501 64.6393 27.1601 64.6393 39.8301C64.6393 52.4901 54.3293 62.7901 41.6593 62.7901Z" fill="#141C16"/>
<path d="M53.9594 39.8203C53.9594 52.1003 48.4494 62.0503 41.6594 62.0503C34.8694 62.0503 29.3594 52.1003 29.3594 39.8203C29.3594 27.5403 34.8694 17.5903 41.6594 17.5903C48.4494 17.5903 53.9594 27.5403 53.9594 39.8203Z" fill="#4A98B1"/>
<path d="M41.6593 62.7102C34.5093 62.7102 28.6893 52.4402 28.6893 39.8202C28.6893 27.2002 34.5093 16.9302 41.6593 16.9302C48.8093 16.9302 54.6293 27.2002 54.6293 39.8202C54.6293 52.4402 48.8093 62.7102 41.6593 62.7102ZM41.6593 18.2502C35.2393 18.2502 30.0193 27.9202 30.0193 39.8202C30.0193 51.7102 35.2393 61.3902 41.6593 61.3902C48.0793 61.3902 53.2993 51.7202 53.2993 39.8202C53.2993 27.9302 48.0793 18.2502 41.6593 18.2502Z" fill="#141C16"/>
<path d="M41.6593 17.5903C48.4593 17.5903 53.9593 27.5403 53.9593 39.8203C53.9593 52.1003 48.4493 62.0503 41.6593 62.0503V17.5903Z" fill="#006E91"/>
<path d="M41.6593 62.7102C41.2893 62.7102 40.9993 62.4102 40.9993 62.0502C40.9993 61.6802 41.2993 61.3902 41.6593 61.3902C48.0793 61.3902 53.2993 51.7202 53.2993 39.8202C53.2993 27.9302 48.0793 18.2502 41.6593 18.2502C41.2893 18.2502 40.9993 17.9502 40.9993 17.5902C40.9993 17.2202 41.2993 16.9302 41.6593 16.9302C48.8093 16.9302 54.6293 27.2002 54.6293 39.8202C54.6293 52.4402 48.8093 62.7102 41.6593 62.7102Z" fill="#141C16"/>
<path d="M63.9693 40.4802H19.3493C18.9793 40.4802 18.6893 40.1802 18.6893 39.8202C18.6893 39.4502 18.9893 39.1602 19.3493 39.1602H63.9693C64.3393 39.1602 64.6293 39.4602 64.6293 39.8202C64.6393 40.1802 64.3393 40.4802 63.9693 40.4802Z" fill="#141C16"/>
<path d="M60.0993 27.9201H23.2193C22.8493 27.9201 22.5593 27.6201 22.5593 27.2601C22.5593 26.8901 22.8593 26.6001 23.2193 26.6001H60.0993C60.4693 26.6001 60.7593 26.9001 60.7593 27.2601C60.7693 27.6201 60.4693 27.9201 60.0993 27.9201Z" fill="#141C16"/>
<path d="M60.0993 52.8503H23.2193C22.8493 52.8503 22.5593 52.5503 22.5593 52.1903C22.5593 51.8203 22.8593 51.5303 23.2193 51.5303H60.0993C60.4693 51.5303 60.7593 51.8303 60.7593 52.1903C60.7693 52.5503 60.4693 52.8503 60.0993 52.8503Z" fill="#141C16"/>
<path d="M41.6593 62.7899C41.2893 62.7899 40.9993 62.4899 40.9993 62.1299V17.4998C40.9993 17.1298 41.2993 16.8398 41.6593 16.8398C42.0293 16.8398 42.3193 17.1398 42.3193 17.4998V62.1299C42.3193 62.4999 42.0293 62.7899 41.6593 62.7899Z" fill="#141C16"/>
<path d="M63.5693 26.8403C63.6093 26.9003 63.6493 26.9703 63.6693 27.0403C63.6393 26.9903 63.6093 26.9303 63.5693 26.8403Z" fill="#33C0D3"/>
<path d="M56.7193 20.6401C60.1593 20.6401 62.8693 25.5001 63.5393 26.8001C61.4893 23.8401 44.6893 29.3901 44.6893 29.3901C44.6893 29.3901 52.7393 20.6401 56.7193 20.6401Z" fill="#4A98B1"/>
<path d="M19.0694 51.5701C19.0294 51.5101 18.9894 51.4401 18.9694 51.3701C18.9994 51.4201 19.0294 51.4901 19.0694 51.5701Z" fill="#33C0D3"/>
<path d="M25.9194 57.7803C22.4794 57.7803 19.7694 52.9203 19.0994 51.6203C21.1494 54.5803 37.9494 49.0303 37.9494 49.0303C37.9494 49.0303 29.8994 57.7803 25.9194 57.7803Z" fill="#33C0D3"/>
<path d="M60.5593 36.2802L54.9893 38.8102L39.6493 24.7202C39.3393 24.4302 38.8893 24.3602 38.5093 24.5302L38.4893 24.5402C37.8793 24.8102 37.6693 25.5602 38.0393 26.1102L48.7593 41.6402L44.9793 43.3602L36.8193 48.0602L32.8793 45.1002C32.3093 44.6702 31.5493 44.5802 30.8893 44.8702L30.7993 44.9102L35.7893 50.2002L66.3993 36.7002C65.7993 35.3102 61.9393 35.6702 60.5593 36.2802Z" fill="white"/>
<path d="M66.4293 36.7404L66.4093 36.6904L35.7993 50.1904L36.3293 57.4404L36.4193 57.4004C37.0793 57.1104 37.5293 56.4904 37.5993 55.7804L38.0793 50.8704L47.1493 47.9904L50.8693 46.4004L55.0793 64.7904C55.2293 65.4404 55.9293 65.7904 56.5393 65.5204L56.5593 65.5104C56.9393 65.3404 57.1893 64.9604 57.1893 64.5404L57.1593 43.7204L62.7893 41.3204C64.1593 40.7204 67.0393 38.1204 66.4293 36.7404Z" fill="#AFE6EE"/>
</svg>
