<svg xmlns="http://www.w3.org/2000/svg" style="height: 0; width: 0; position: absolute;"><symbol id="icon-package-box" viewBox="0 0 24 25"><title>package box</title><g class="nc-icon-wrapper"><path fill-rule="evenodd" clip-rule="evenodd" d="M21.0037 8.91143V19.827C21.0037 20.932 20.1079 21.8278 19.0029 21.8278H4.99705C3.89202 21.8278 2.99622 20.932 2.99622 19.827V8.91143C2.99584 8.64013 3.05064 8.37157 3.15729 8.12211L4.47784 5.03182C4.79358 4.29636 5.51723 3.81983 6.3176 3.82031H17.6823C18.4834 3.82031 19.2073 4.29819 19.5221 5.03482L20.8427 8.12211C20.9491 8.37162 21.0039 8.64014 21.0037 8.91143Z" stroke="currentColor" stroke-linecap="round" stroke-linejoin="round" fill="none"></path><path d="M2.99622 8.82199H20.9937" stroke="currentColor" stroke-linecap="round" stroke-linejoin="round" fill="none"></path><path d="M14.0009 3.82031L15.0013 8.8224V12.0487C14.9765 12.4998 14.5921 12.8462 14.1409 12.8241H9.85914C9.40793 12.8462 9.02355 12.4998 8.99878 12.0487V8.8224L9.9992 3.82031" stroke="currentColor" stroke-linecap="round" stroke-linejoin="round" fill="none"></path><path d="M5.99744 18.8264H7.99827" stroke="currentColor" stroke-linecap="round" stroke-linejoin="round" fill="none"></path></g></symbol><symbol id="icon-Sign-Out,-Right" viewBox="0 0 24 25"><title>Sign Out, Right</title><g class="nc-icon-wrapper"><path d="M9.85999 12.4604H20" stroke="currentColor" stroke-linecap="round" stroke-linejoin="round" fill="none"></path><path d="M10.864 20.4414L6.69599 20.4604C5.50099 20.4664 4.52899 19.5084 4.52899 18.3254V6.59545C4.52899 5.41645 5.49399 4.46045 6.68599 4.46045H11" stroke="currentColor" stroke-linecap="round" stroke-linejoin="round" fill="none"></path><path d="M16 16.4604L20 12.4604L16 8.46045" stroke="currentColor" stroke-linecap="round" stroke-linejoin="round" fill="none"></path></g></symbol><symbol id="icon-Lock" viewBox="0 0 24 25"><title>Lock</title><g class="nc-icon-wrapper"><path fill-rule="evenodd" clip-rule="evenodd" d="M17 21.6533H7C5.895 21.6533 5 20.7583 5 19.6533V11.6533C5 10.5483 5.895 9.65332 7 9.65332H17C18.105 9.65332 19 10.5483 19 11.6533V19.6533C19 20.7583 18.105 21.6533 17 21.6533Z" stroke="currentColor" stroke-linecap="round" stroke-linejoin="round" fill="none"></path><path d="M12 17.7433V15.1533" stroke="currentColor" stroke-linecap="round" stroke-linejoin="round" fill="none"></path><path d="M12.5303 13.873C12.8232 14.1659 12.8232 14.6408 12.5303 14.9337C12.2374 15.2265 11.7626 15.2265 11.4697 14.9337C11.1768 14.6408 11.1768 14.1659 11.4697 13.873C11.7626 13.5801 12.2374 13.5801 12.5303 13.873" stroke="currentColor" stroke-linecap="round" stroke-linejoin="round" fill="none"></path><path d="M8 9.65332V7.65332V7.65332C8 5.44432 9.791 3.65332 12 3.65332V3.65332C14.209 3.65332 16 5.44432 16 7.65332V7.65332V9.65332" stroke="currentColor" stroke-linecap="round" stroke-linejoin="round" fill="none"></path></g></symbol><symbol id="icon-msg-smile" viewBox="0 0 18 18"><title>msg smile</title><g class="nc-icon-wrapper"><path d="M9,1.75C4.996,1.75,1.75,4.996,1.75,9c0,1.319,.358,2.552,.973,3.617,.43,.806-.053,2.712-.973,3.633,1.25,.068,2.897-.497,3.633-.973,.489,.282,1.264,.656,2.279,.848,.433,.082,.881,.125,1.338,.125,4.004,0,7.25-3.246,7.25-7.25S13.004,1.75,9,1.75Z" fill="none" stroke="currentColor" stroke-linecap="round" stroke-linejoin="round"></path><path d="M5.992,12c.77,.772,1.834,1.25,3.008,1.25s2.231-.475,3-1.242" fill="none" stroke="currentColor" stroke-linecap="round" stroke-linejoin="round"></path></g></symbol><symbol id="icon-Play" viewBox="0 0 24 25"><title>Play</title><g class="nc-icon-wrapper"><path fill-rule="evenodd" clip-rule="evenodd" d="M21 12.061V12.061C21 17.032 16.971 21.061 12 21.061V21.061C7.029 21.061 3 17.032 3 12.061V12.061C3 7.09003 7.029 3.06104 12 3.06104V3.06104C16.971 3.06104 21 7.09003 21 12.061Z" stroke="currentColor" stroke-linecap="round" stroke-linejoin="round" fill="none"></path><path fill-rule="evenodd" clip-rule="evenodd" d="M10.9411 9.11886L14.8231 11.4149C15.3141 11.7049 15.3141 12.4159 14.8231 12.7059L10.9411 15.0019C10.4411 15.2979 9.80908 14.9369 9.80908 14.3559V9.76486C9.80908 9.18386 10.4411 8.82286 10.9411 9.11886V9.11886Z" stroke="currentColor" stroke-linecap="round" stroke-linejoin="round" fill="none"></path></g></symbol><symbol id="icon-calendar" viewBox="0 0 18 18"><title>calendar</title><g class="nc-icon-wrapper"><line x1="5.75" y1="2.75" x2="5.75" y2=".75" fill="none" stroke="currentColor" stroke-linecap="round" stroke-linejoin="round"></line><line x1="12.25" y1="2.75" x2="12.25" y2=".75" fill="none" stroke="currentColor" stroke-linecap="round" stroke-linejoin="round"></line><rect x="2.25" y="2.75" width="13.5" height="12.5" rx="2" ry="2" fill="none" stroke="currentColor" stroke-linecap="round" stroke-linejoin="round"></rect><line x1="2.25" y1="6.25" x2="15.75" y2="6.25" fill="none" stroke="currentColor" stroke-linecap="round" stroke-linejoin="round"></line></g></symbol><symbol id="icon-Pen,-Edit,-Write" viewBox="0 0 24 25"><title>Pen, Edit, Write</title><g class="nc-icon-wrapper"><path fill-rule="evenodd" clip-rule="evenodd" d="M20.707 5.53147L19.293 4.11747C18.902 3.72647 18.269 3.72647 17.879 4.11747L7.293 14.7035C7.105 14.8905 7 15.1455 7 15.4105V17.8245H9.414C9.679 17.8245 9.934 17.7195 10.121 17.5315L20.707 6.94547C21.098 6.55547 21.098 5.92247 20.707 5.53147V5.53147Z" stroke="currentColor" stroke-linecap="round" stroke-linejoin="round" fill="none"></path><path d="M18.91 8.73406L16.09 5.91406" stroke="currentColor" stroke-linecap="round" stroke-linejoin="round" fill="none"></path><path d="M21 11.8242V19.8242C21 20.9292 20.105 21.8242 19 21.8242H5C3.895 21.8242 3 20.9292 3 19.8242V5.82422C3 4.71922 3.895 3.82422 5 3.82422H13" stroke="currentColor" stroke-linecap="round" stroke-linejoin="round" fill="none"></path></g></symbol><symbol id="icon-Emails,-Letter,-Mail-1" viewBox="0 0 24 25"><title>Emails, Letter, Mail 1</title><g class="nc-icon-wrapper"><path fill-rule="evenodd" clip-rule="evenodd" d="M19 19.4417H5C3.895 19.4417 3 18.5467 3 17.4417V7.47974C3 6.37474 3.895 5.47974 5 5.47974H19C20.105 5.47974 21 6.37474 21 7.47974V17.4427C21 18.5467 20.105 19.4417 19 19.4417V19.4417Z" stroke="currentColor" stroke-linecap="round" stroke-linejoin="round" fill="none"></path><path d="M17 9.46069L12 12.4607L7 9.46069" stroke="currentColor" stroke-linecap="round" stroke-linejoin="round" fill="none"></path></g></symbol><symbol id="icon-Pin,-Location-1" viewBox="0 0 24 25"><title>Pin, Location 1</title><g class="nc-icon-wrapper"><path fill-rule="evenodd" clip-rule="evenodd" d="M12 13.8848V13.8848C10.343 13.8848 9 12.5418 9 10.8848V10.8848C9 9.22777 10.343 7.88477 12 7.88477V7.88477C13.657 7.88477 15 9.22777 15 10.8848V10.8848C15 12.5418 13.657 13.8848 12 13.8848Z" stroke="currentColor" stroke-linecap="round" stroke-linejoin="round" fill="none"></path><path fill-rule="evenodd" clip-rule="evenodd" d="M12 21.8848C12 21.8848 5 16.1348 5 10.8848C5 7.01877 8.134 3.88477 12 3.88477C15.866 3.88477 19 7.01877 19 10.8848C19 16.1348 12 21.8848 12 21.8848Z" stroke="currentColor" stroke-linecap="round" stroke-linejoin="round" fill="none"></path></g></symbol><symbol id="icon-Pen,-Edit-13" viewBox="0 0 24 25"><title>Pen, Edit 13</title><g class="nc-icon-wrapper"><path d="M17.54 10.5807L13.88 6.92065" stroke="currentColor" stroke-linecap="round" stroke-linejoin="round" fill="none"></path><path fill-rule="evenodd" clip-rule="evenodd" d="M6.251 21.4608H3V18.2098C3 17.9448 3.105 17.6898 3.293 17.5028L16.627 4.16776C17.018 3.77676 17.651 3.77676 18.041 4.16776L20.292 6.41876C20.683 6.80976 20.683 7.44276 20.292 7.83276L6.958 21.1678C6.771 21.3558 6.516 21.4608 6.251 21.4608V21.4608Z" stroke="currentColor" stroke-linecap="round" stroke-linejoin="round" fill="none"></path></g></symbol><symbol id="icon-trash-delete-bin-2-1" viewBox="0 0 24 25"><title>trash delete bin 2 1</title><g class="nc-icon-wrapper"><path fill-rule="evenodd" clip-rule="evenodd" d="M15.5429 21.4651H8.4571C7.2809 21.4651 6.30301 20.5595 6.21279 19.3868L5.24719 6.83398H18.7528L17.7872 19.3868C17.697 20.5595 16.7191 21.4651 15.5429 21.4651V21.4651Z" stroke="currentColor" stroke-linecap="round" stroke-linejoin="round" fill="none"></path><path d="M20.0033 6.83419H3.99664" stroke="currentColor" stroke-linecap="round" stroke-linejoin="round" fill="none"></path><path fill-rule="evenodd" clip-rule="evenodd" d="M9.18632 3.45703H14.8137C15.4352 3.45703 15.9391 3.96092 15.9391 4.5825V6.83344H8.06085V4.5825C8.06085 4.28401 8.17943 3.99774 8.39049 3.78667C8.60156 3.57561 8.88783 3.45703 9.18632 3.45703Z" stroke="currentColor" stroke-linecap="round" stroke-linejoin="round" fill="none"></path><path d="M9.99915 17.4631H14.0008" stroke="currentColor" stroke-linecap="round" stroke-linejoin="round" fill="none"></path></g></symbol><symbol id="icon-check" viewBox="0 0 18 18"><title>check</title><g class="nc-icon-wrapper"><polyline points="2.75 9.25 6.75 14.25 15.25 3.75" fill="none" stroke="currentColor" stroke-linecap="round" stroke-linejoin="round"></polyline></g></symbol><symbol id="icon-store-mobile-11" viewBox="0 0 24 25"><title>store mobile 11</title><g class="nc-icon-wrapper"><path d="M15.0013 8.80371V9.17887C15.0013 10.8364 13.6576 12.1801 12 12.1801V12.1801C10.3425 12.1801 8.99878 10.8364 8.99878 9.17887V8.80371" stroke="currentColor" stroke-linecap="round" stroke-linejoin="round" fill="none"></path><path d="M15.0013 8.8041V9.17926C15.0013 10.8368 16.345 12.1805 18.0026 12.1805H18.2509C19.7713 12.1805 21.0038 10.948 21.0038 9.42758V9.42758C21.0038 9.01961 20.893 8.61932 20.6831 8.26949L18.2831 4.26959C17.8763 3.5916 17.1436 3.17676 16.353 3.17676H7.6472C6.85653 3.17676 6.12384 3.5916 5.71704 4.26959L3.31711 8.26948C3.10721 8.61931 2.99634 9.0196 2.99634 9.42757V9.42757C2.99634 10.948 4.22886 12.1805 5.74926 12.1805H5.99759C7.65513 12.1805 8.99884 10.8368 8.99884 9.17926V8.8041" stroke="currentColor" stroke-linecap="round" stroke-linejoin="round" fill="none"></path><path d="M19.8784 11.6447V18.9332C19.8784 20.1764 18.8706 21.1841 17.6275 21.1841H6.37276C5.12961 21.1841 4.12183 20.1764 4.12183 18.9332V11.6445" stroke="currentColor" stroke-linecap="round" stroke-linejoin="round" fill="none"></path><path d="M13.6884 17.0261H10.312" stroke="currentColor" stroke-linecap="round" stroke-linejoin="round" fill="none"></path></g></symbol><symbol id="icon-Shopping-Cart" viewBox="0 0 24 25"><title>Shopping Cart</title><g class="nc-icon-wrapper"><path fill-rule="evenodd" clip-rule="evenodd" d="M7.40902 14.4262L5.87402 7.18018H18.5C19.151 7.18018 19.628 7.79118 19.47 8.42318L18.122 13.8152C17.917 14.6342 17.221 15.2362 16.381 15.3202L9.56502 16.0022C8.54902 16.1032 7.62002 15.4242 7.40902 14.4262Z" stroke="currentColor" stroke-linecap="round" stroke-linejoin="round" fill="none"></path><path d="M5.874 7.18018L5.224 4.18018H3.5" stroke="currentColor" stroke-linecap="round" stroke-linejoin="round" fill="none"></path><path d="M17.1091 19.447C16.9071 19.447 16.7431 19.611 16.7451 19.813C16.7451 20.015 16.9091 20.179 17.1111 20.179C17.3131 20.179 17.4771 20.015 17.4771 19.813C17.4761 19.611 17.3121 19.447 17.1091 19.447" stroke="currentColor" stroke-linecap="round" stroke-linejoin="round" fill="none"></path><path d="M8.697 19.447C8.495 19.447 8.331 19.611 8.333 19.813C8.331 20.016 8.496 20.18 8.698 20.18C8.9 20.18 9.064 20.016 9.064 19.814C9.064 19.611 8.9 19.447 8.697 19.447" stroke="currentColor" stroke-linecap="round" stroke-linejoin="round" fill="none"></path></g></symbol><symbol id="icon-menu-burger-square" viewBox="0 0 24 25"><title>menu burger square</title><g class="nc-icon-wrapper"><path d="M2.99622 6.45822H21.0037" stroke="currentColor" stroke-linecap="round" stroke-linejoin="round" fill="none"></path><path d="M17.002 12.4607H2.99622" stroke="currentColor" stroke-linecap="round" stroke-linejoin="round" fill="none"></path><path d="M2.99622 18.4631H13.0004" stroke="currentColor" stroke-linecap="round" stroke-linejoin="round" fill="none"></path></g></symbol><symbol id="icon-Youtube" viewBox="0 0 24 25"><title>Youtube</title><g class="nc-icon-wrapper"><path fill-rule="evenodd" clip-rule="evenodd" d="M21.583 6.84418C21.354 5.84018 20.676 5.04818 19.814 4.77618C18.255 4.28918 12 4.28918 12 4.28918C12 4.28918 5.748 4.28918 4.186 4.77618C3.327 5.04418 2.649 5.83618 2.417 6.84418C2 8.66618 2 12.4712 2 12.4712C2 12.4712 2 16.2762 2.417 18.0982C2.646 19.1022 3.324 19.8942 4.186 20.1662C5.748 20.6532 12 20.6532 12 20.6532C12 20.6532 18.255 20.6532 19.814 20.1662C20.673 19.8982 21.351 19.1062 21.583 18.0982C22 16.2762 22 12.4712 22 12.4712C22 12.4712 22 8.66618 21.583 6.84418Z" stroke="currentColor" stroke-linecap="round" stroke-linejoin="round" fill="none"></path><path fill-rule="evenodd" clip-rule="evenodd" d="M10.002 15.4712L15.198 12.4712L10.002 9.47119V15.4712Z" stroke="currentColor" stroke-linecap="round" stroke-linejoin="round" fill="none"></path></g></symbol><symbol id="icon-Whatsup" viewBox="0 0 24 25"><title>Whatsup</title><g class="nc-icon-wrapper"><path fill-rule="evenodd" clip-rule="evenodd" d="M18.2039 6.23319C16.5579 4.58619 14.3689 3.67819 12.0369 3.67719C7.2299 3.67719 3.3189 7.58618 3.3179 12.3912C3.3159 13.9202 3.7169 15.4232 4.4809 16.7482L3.2439 21.2642L7.8659 20.0522C9.1449 20.7482 10.5769 21.1132 12.0329 21.1132H12.0369C16.8419 21.1132 20.7529 17.2032 20.7549 12.3982C20.7559 10.0702 19.8499 7.88119 18.2039 6.23319Z" stroke="currentColor" stroke-linecap="round" stroke-linejoin="round" fill="none"></path><path d="M13.095 14.0312L13.501 13.6282C13.874 13.2582 14.464 13.2112 14.894 13.5132C15.31 13.8052 15.686 14.0672 16.036 14.3112C16.592 14.6972 16.659 15.4892 16.18 15.9672L15.821 16.3262" stroke="currentColor" stroke-linecap="round" stroke-linejoin="round" fill="none"></path><path d="M8.14502 8.65021L8.50402 8.29121C8.98202 7.81321 9.77402 7.88021 10.16 8.43521C10.403 8.78521 10.665 9.16121 10.958 9.57721C11.26 10.0072 11.214 10.5972 10.843 10.9702L10.44 11.3762" stroke="currentColor" stroke-linecap="round" stroke-linejoin="round" fill="none"></path><path d="M15.821 16.3262C14.34 17.8002 11.851 16.5482 9.88599 14.5822" stroke="currentColor" stroke-linecap="round" stroke-linejoin="round" fill="none"></path><path d="M9.88807 14.5852C7.92307 12.6192 6.67107 10.1312 8.14507 8.65021" stroke="currentColor" stroke-linecap="round" stroke-linejoin="round" fill="none"></path><path d="M10.4402 11.3762C10.7592 11.8792 11.1682 12.3772 11.6302 12.8392L11.6322 12.8412C12.0942 13.3032 12.5922 13.7122 13.0952 14.0312" stroke="currentColor" stroke-linecap="round" stroke-linejoin="round" fill="none"></path></g></symbol><symbol id="icon-instagram" viewBox="0 0 24 24"><title>instagram</title><g class="nc-icon-wrapper"><path fill-rule="evenodd" clip-rule="evenodd" d="M7.496 3H16.505C18.987 3 21 5.012 21 7.496V16.505C21 18.987 18.988 21 16.504 21H7.496C5.013 21 3 18.988 3 16.504V7.496C3 5.013 5.012 3 7.496 3V3Z" stroke="currentColor" stroke-linecap="round" stroke-linejoin="round" fill="none"></path><path d="M16.949 6.71279C16.763 6.71379 16.612 6.86479 16.612 7.05079C16.612 7.23679 16.764 7.38779 16.95 7.38779C17.136 7.38779 17.287 7.23679 17.287 7.05079C17.288 6.86379 17.136 6.71279 16.949 6.71279" stroke="currentColor" stroke-linecap="round" stroke-linejoin="round" fill="none"></path><path d="M14.5455 9.45432C15.9514 10.8602 15.9514 13.1396 14.5455 14.5455C13.1396 15.9514 10.8602 15.9514 9.45432 14.5455C8.04843 13.1396 8.04843 10.8602 9.45432 9.45432C10.8602 8.04843 13.1396 8.04843 14.5455 9.45432" stroke="currentColor" stroke-linecap="round" stroke-linejoin="round" fill="none"></path></g></symbol><symbol id="icon-Phone,-Call-11" viewBox="0 0 24 25"><title>Phone, Call 11</title><g class="nc-icon-wrapper"><path fill-rule="evenodd" clip-rule="evenodd" d="M10.8559 13.325C9.6859 12.155 8.8039 10.845 8.2179 9.51602C8.0939 9.23502 8.1669 8.90602 8.3839 8.68902L9.2029 7.87102C9.8739 7.20002 9.8739 6.25102 9.2879 5.66502L8.1139 4.49102C7.3329 3.71002 6.0669 3.71002 5.2859 4.49102L4.6339 5.14302C3.8929 5.88402 3.5839 6.95302 3.7839 8.01302C4.2779 10.626 5.7959 13.487 8.2449 15.936C10.6939 18.385 13.5549 19.903 16.1679 20.397C17.2279 20.597 18.2969 20.288 19.0379 19.547L19.6889 18.896C20.4699 18.115 20.4699 16.849 19.6889 16.068L18.5159 14.895C17.9299 14.309 16.9799 14.309 16.3949 14.895L15.4919 15.799C15.2749 16.016 14.9459 16.089 14.6649 15.965C13.3359 15.378 12.0259 14.495 10.8559 13.325Z" stroke="currentColor" stroke-linecap="round" stroke-linejoin="round" fill="none"></path></g></symbol><symbol id="icon-plus" viewBox="0 0 18 18"><title>plus</title><g class="nc-icon-wrapper"><line x1="9" y1="3.25" x2="9" y2="14.75" fill="none" stroke="currentColor" stroke-linecap="round" stroke-linejoin="round"></line><line x1="3.25" y1="9" x2="14.75" y2="9" fill="none" stroke="currentColor" stroke-linecap="round" stroke-linejoin="round"></line></g></symbol><symbol id="icon-Arrow,-Up-1" viewBox="0 0 24 25"><title>Arrow, Up 1</title><g class="nc-icon-wrapper"><path d="M12.01 4.97061V19.9606" stroke="currentColor" stroke-linecap="round" stroke-linejoin="round" fill="none"></path><path d="M6.02295 10.9746L11.9999 4.95862L17.9769 10.9746" stroke="currentColor" stroke-linecap="round" stroke-linejoin="round" fill="none"></path></g></symbol><symbol id="icon-Search" viewBox="0 0 24 25"><title>Search</title><g class="nc-icon-wrapper"><path d="M14.1931 6.04257C16.5249 8.37439 16.5249 12.155 14.1931 14.4868C11.8613 16.8187 8.08062 16.8187 5.7488 14.4868C3.41698 12.155 3.41698 8.37439 5.7488 6.04257C8.08062 3.71075 11.8613 3.71075 14.1931 6.04257" stroke="currentColor" stroke-linecap="round" stroke-linejoin="round" fill="none"></path><path d="M14.15 14.5208L20 20.4508" stroke="currentColor" stroke-linecap="round" stroke-linejoin="round" fill="none"></path></g></symbol><symbol id="icon-User,-Profile" viewBox="0 0 24 25"><title>User, Profile</title><g class="nc-icon-wrapper"><path d="M12 11.7104C9.9471 11.7104 8.267 10.0311 8.267 7.97745H6.767C6.767 10.8598 9.1189 13.2104 12 13.2104V11.7104ZM8.267 7.97745C8.267 5.91639 9.95445 4.21045 12 4.21045V2.71045C9.11155 2.71045 6.767 5.10251 6.767 7.97745H8.267ZM12 4.21045C14.0529 4.21045 15.733 5.88977 15.733 7.94345H17.233C17.233 5.06113 14.8811 2.71045 12 2.71045V4.21045ZM15.733 7.94345C15.733 10.0045 14.0456 11.7104 12 11.7104V13.2104C14.8884 13.2104 17.233 10.8184 17.233 7.94345H15.733ZM19 20.7104H5V22.2104H19V20.7104ZM5 20.7104C4.86421 20.7104 4.75 20.5962 4.75 20.4604H3.25C3.25 21.4247 4.03579 22.2104 5 22.2104V20.7104ZM4.75 20.4604V19.4604H3.25V20.4604H4.75ZM4.75 19.4604C4.75 17.6747 6.21421 16.2104 8 16.2104V14.7104C5.38579 14.7104 3.25 16.8462 3.25 19.4604H4.75ZM8 16.2104H16V14.7104H8V16.2104ZM16 16.2104C17.7858 16.2104 19.25 17.6747 19.25 19.4604H20.75C20.75 16.8462 18.6142 14.7104 16 14.7104V16.2104ZM19.25 19.4604V20.4604H20.75V19.4604H19.25ZM19.25 20.4604C19.25 20.5962 19.1358 20.7104 19 20.7104V22.2104C19.9642 22.2104 20.75 21.4247 20.75 20.4604H19.25Z" fill="currentColor" stroke="none"></path></g></symbol> <symbol id="icon-Settings,-Filter-2" viewBox="0 0 24 25"><title>Settings, Filter 2</title><g class="nc-icon-wrapper"><path d="M18 5.46045H21" stroke="currentColor" stroke-linecap="round" stroke-linejoin="round" fill="none"></path><path d="M3 5.46045H14" stroke="currentColor" stroke-linecap="round" stroke-linejoin="round" fill="none"></path><path d="M10 12.4604H21" stroke="currentColor" stroke-linecap="round" stroke-linejoin="round" fill="none"></path><path d="M3 12.4604H6" stroke="currentColor" stroke-linecap="round" stroke-linejoin="round" fill="none"></path><path d="M18 19.4604H21" stroke="currentColor" stroke-linecap="round" stroke-linejoin="round" fill="none"></path><path d="M3 19.4604H14" stroke="currentColor" stroke-linecap="round" stroke-linejoin="round" fill="none"></path><path d="M17.4142 4.04624C18.1953 4.82728 18.1953 6.09362 17.4142 6.87467C16.6332 7.65571 15.3668 7.65571 14.5858 6.87467C13.8047 6.09362 13.8047 4.82729 14.5858 4.04624C15.3668 3.26519 16.6332 3.26519 17.4142 4.04624" stroke="currentColor" stroke-linecap="round" stroke-linejoin="round" fill="none"></path><path d="M9.41422 11.0462C10.1953 11.8273 10.1953 13.0936 9.41422 13.8747C8.63317 14.6557 7.36684 14.6557 6.58579 13.8747C5.80474 13.0936 5.80474 11.8273 6.58579 11.0462C7.36684 10.2652 8.63317 10.2652 9.41422 11.0462" stroke="currentColor" stroke-linecap="round" stroke-linejoin="round" fill="none"></path><path d="M17.4142 18.0462C18.1953 18.8273 18.1953 20.0936 17.4142 20.8747C16.6332 21.6557 15.3668 21.6557 14.5858 20.8747C13.8047 20.0936 13.8047 18.8273 14.5858 18.0462C15.3668 17.2652 16.6332 17.2652 17.4142 18.0462" stroke="currentColor" stroke-linecap="round" stroke-linejoin="round" fill="none"></path></g></symbol><symbol id="icon-chevron-down" viewBox="0 0 18 18"><title>chevron down</title><g class="nc-icon-wrapper"><polyline points="15.25 6.5 9 12.75 2.75 6.5" fill="none" stroke="currentColor" stroke-linecap="round" stroke-linejoin="round" stroke-width="1.5"></polyline></g></symbol><symbol id="icon-Infornation,-Info" viewBox="0 0 24 25"><title>Infornation, Info</title><g class="nc-icon-wrapper"><path d="M11.999 8.46069C11.861 8.46069 11.749 8.57269 11.75 8.71069C11.75 8.84869 11.862 8.96069 12 8.96069C12.138 8.96069 12.25 8.84869 12.25 8.71069C12.25 8.57269 12.138 8.46069 11.999 8.46069" stroke="currentColor" stroke-linecap="round" stroke-linejoin="round" fill="none"></path><path fill-rule="evenodd" clip-rule="evenodd" d="M12 21.4607V21.4607C7.029 21.4607 3 17.4317 3 12.4607V12.4607C3 7.48969 7.029 3.46069 12 3.46069V3.46069C16.971 3.46069 21 7.48969 21 12.4607V12.4607C21 17.4317 16.971 21.4607 12 21.4607Z" stroke="currentColor" stroke-linecap="round" stroke-linejoin="round" fill="none"></path><path d="M12 12.4607V17.4607" stroke="currentColor" stroke-linecap="round" stroke-linejoin="round" fill="none"></path></g></symbol><symbol id="icon-Send" viewBox="0 0 24 25"><title>Send</title><g class="nc-icon-wrapper"><path fill-rule="evenodd" clip-rule="evenodd" d="M14.9209 19.6396L19.9199 6.15464C20.2919 5.14964 19.3139 4.17164 18.3089 4.54364L4.81794 9.54664C3.66294 9.97464 3.75394 11.6366 4.94794 11.9366L11.0149 13.4606L12.5299 19.5086C12.8289 20.7036 14.4919 20.7956 14.9209 19.6396V19.6396Z" stroke="currentColor" stroke-linecap="round" stroke-linejoin="round" fill="none"></path></g></symbol><symbol id="icon-Reply,-Emails,-Letter,-Mail-1" viewBox="0 0 24 25"><title>Reply, Emails, Letter, Mail 1</title><g class="nc-icon-wrapper"><path fill-rule="evenodd" clip-rule="evenodd" d="M11 13.9212V16.9892C11 17.8562 9.971 18.3122 9.328 17.7302L3.298 12.2642C2.85 11.8582 2.862 11.1512 3.323 10.7612L9.353 5.64319C10.003 5.09119 11 5.55319 11 6.40519V8.84219C16.463 8.84219 21 12.2142 21 17.8242V18.9532C19.153 15.2692 15.313 13.9212 11 13.9212Z" stroke="currentColor" stroke-linecap="round" stroke-linejoin="round" fill="none"></path></g></symbol><symbol id="icon-Chat,-Messages-1" viewBox="0 0 24 25"><title>Chat, Messages 1</title><g class="nc-icon-wrapper"><path d="M13 17.4606H18C19.657 17.4606 21 16.1176 21 14.4606V6.46063C21 4.80363 19.657 3.46063 18 3.46063H6C4.343 3.46063 3 4.80363 3 6.46063V14.4606C3 16.1176 4.343 17.4606 6 17.4606H8V21.4606L13 17.4606" stroke="currentColor" stroke-linecap="round" stroke-linejoin="round" fill="none"></path></g></symbol </svg>